<svg width="54" height="59" viewBox="0 0 54 59" fill="none" xmlns="http://www.w3.org/2000/svg">
<path d="M26.8138 0C12.0168 0 0 11.9365 0 26.6744V56.3164C0 57.0281 0.282726 57.7105 0.785984 58.2137C1.28924 58.717 1.97181 58.9999 2.68353 58.9999C3.39524 58.9999 4.07781 58.717 4.58106 58.2137C5.08432 57.7105 5.36705 57.0281 5.36705 56.3164V26.6685C5.36705 14.8342 14.8775 5.36705 26.8138 5.36705C38.7501 5.36705 48.2605 14.8347 48.2605 26.6744V56.3164C48.2605 57.0281 48.5433 57.7105 49.0465 58.2137C49.5498 58.717 50.2323 58.9999 50.9441 58.9999C51.6558 58.9999 52.3383 58.717 52.8416 58.2137C53.3448 57.7105 53.6276 57.0281 53.6276 56.3164V26.6685C53.6276 11.936 41.6108 0 26.8138 0Z" fill="black"/>
</svg>
