<svg width="16" height="16" viewBox="0 0 16 16" fill="none" xmlns="http://www.w3.org/2000/svg">
<path d="M5.29279 1.63605C5.10532 1.82358 5 2.07788 5 2.34305C5 2.60821 5.10532 2.86252 5.29279 3.05005L10.2428 8.00005L5.29279 12.95C5.11063 13.1387 5.00983 13.3913 5.01211 13.6535C5.01439 13.9156 5.11956 14.1665 5.30497 14.3519C5.49038 14.5373 5.74119 14.6424 6.00338 14.6447C6.26558 14.647 6.51818 14.5462 6.70679 14.364L12.3638 8.70705C12.5513 8.51952 12.6566 8.26521 12.6566 8.00005C12.6566 7.73488 12.5513 7.48058 12.3638 7.29305L6.70679 1.63605C6.51926 1.44858 6.26495 1.34326 5.99979 1.34326C5.73462 1.34326 5.48031 1.44858 5.29279 1.63605Z" fill="black"/>
</svg>
