<svg width="88" height="98" viewBox="0 0 88 98" fill="none" xmlns="http://www.w3.org/2000/svg">
<path fill-rule="evenodd" clip-rule="evenodd" d="M47.2543 0.521556C45.0795 -0.173852 42.7421 -0.173852 40.5673 0.521556L7.63421 11.0601C5.4176 11.7689 3.48358 13.1638 2.11138 15.0434C0.739186 16.923 -0.000190626 19.19 3.68655e-08 21.5172V43.5981C3.68655e-08 53.4215 2.00735 63.5587 8.17368 72.9681C14.34 82.365 24.3893 90.614 39.7393 97.1504C41.0585 97.7112 42.4773 98.0002 43.9108 98.0002C45.3443 98.0002 46.7631 97.7112 48.0823 97.1504C63.4323 90.614 73.4816 82.365 79.6479 72.9681C85.8143 63.5587 87.8216 53.4215 87.8216 43.5981V21.5172C87.8218 19.19 87.0824 16.923 85.7102 15.0434C84.338 13.1638 82.404 11.7689 80.1874 11.0601L47.2543 0.521556ZM43.4278 9.48563C43.7398 9.38533 44.0755 9.38533 44.3876 9.48563L77.3207 20.0242C77.6373 20.1253 77.9137 20.3243 78.1099 20.5927C78.3061 20.861 78.4119 21.1848 78.4122 21.5172V43.5981C78.4122 52.1168 76.6871 60.3218 71.7816 67.8117C66.8636 75.3017 58.4766 82.4905 44.3938 88.4937C44.2408 88.5576 44.0766 88.5904 43.9108 88.5904C43.745 88.5904 43.5808 88.5576 43.4278 88.4937C29.345 82.4968 20.958 75.2954 16.04 67.8055C11.1345 60.3218 9.40946 52.1293 9.40946 43.5981V21.5172C9.41101 21.1859 9.51746 20.8635 9.71355 20.5964C9.90965 20.3293 10.1853 20.1312 10.501 20.0305L43.4341 9.49191L43.4278 9.48563ZM64.4862 39.0815C65.3172 38.1897 65.7696 37.01 65.7481 35.7912C65.7266 34.5724 65.2329 33.4094 64.3709 32.5474C63.5089 31.6855 62.346 31.1917 61.1271 31.1702C59.9083 31.1487 58.7287 31.6011 57.8368 32.4322L39.2061 51.0629L33.1213 44.9781C32.6906 44.5159 32.1712 44.1451 31.5941 43.888C31.017 43.6308 30.394 43.4926 29.7623 43.4814C29.1306 43.4703 28.5031 43.5865 27.9172 43.8231C27.3314 44.0597 26.7993 44.4119 26.3525 44.8587C25.9058 45.3054 25.5536 45.8376 25.3169 46.4234C25.0803 47.0092 24.9641 47.6367 24.9753 48.2684C24.9864 48.9001 25.1247 49.5231 25.3818 50.1002C25.639 50.6773 26.0097 51.1967 26.4719 51.6275L35.8814 61.0369C36.7635 61.918 37.9593 62.4128 39.2061 62.4128C40.4528 62.4128 41.6486 61.918 42.5308 61.0369L64.4862 39.0815Z" fill="#34A853"/>
</svg>
