<svg width="16" height="16" viewBox="0 0 16 16" fill="none" xmlns="http://www.w3.org/2000/svg">
<path fill-rule="evenodd" clip-rule="evenodd" d="M9.91886 2.72204C8.65675 2.42599 7.34325 2.42599 6.08114 2.72204C4.4144 3.113 3.113 4.4144 2.72204 6.08114C2.42599 7.34325 2.42599 8.65675 2.72204 9.91886C3.113 11.5856 4.41441 12.887 6.08114 13.278C7.34325 13.574 8.65675 13.574 9.91886 13.278C11.5856 12.887 12.887 11.5856 13.278 9.91886C13.574 8.65675 13.574 7.34325 13.278 6.08114C12.887 4.4144 11.5856 3.113 9.91886 2.72204ZM5.85277 1.74846C7.26509 1.41718 8.73491 1.41718 10.1472 1.74846C12.1837 2.22616 13.7738 3.81628 14.2515 5.85277C14.5828 7.26509 14.5828 8.73491 14.2515 10.1472C13.7738 12.1837 12.1837 13.7738 10.1472 14.2515C8.73491 14.5828 7.26509 14.5828 5.85277 14.2515C3.81628 13.7738 2.22616 12.1837 1.74846 10.1472C1.41718 8.73491 1.41718 7.26509 1.74846 5.85277C2.22616 3.81627 3.81627 2.22616 5.85277 1.74846Z" fill="#956121"/>
<path fill-rule="evenodd" clip-rule="evenodd" d="M7.77441 5.5C8.05056 5.5 8.27441 5.72386 8.27441 6V8.1881L9.93522 9.24482C10.1682 9.39305 10.2369 9.70209 10.0887 9.93507C9.94042 10.1681 9.63138 10.2368 9.3984 10.0885L7.50601 8.88445C7.36176 8.79267 7.27441 8.63356 7.27441 8.4626V6C7.27441 5.72386 7.49827 5.5 7.77441 5.5Z" fill="#956121"/>
</svg>
