<svg width="40" height="40" viewBox="0 0 40 40" fill="none" xmlns="http://www.w3.org/2000/svg">
<path d="M39.611 16.083H38V16H20V24H31.303C29.654 28.657 25.223 32 20 32C13.373 32 8 26.627 8 20C8 13.373 13.373 8 20 8C23.059 8 25.842 9.154 27.961 11.039L33.618 5.382C30.046 2.053 25.268 0 20 0C8.955 0 0 8.955 0 20C0 31.045 8.955 40 20 40C31.045 40 40 31.045 40 20C40 18.659 39.862 17.35 39.611 16.083Z" fill="#FFC107"/>
<path d="M2.30664 10.691L8.87764 15.51C10.6556 11.108 14.9616 8 20.0006 8C23.0596 8 25.8426 9.154 27.9616 11.039L33.6186 5.382C30.0466 2.053 25.2686 0 20.0006 0C12.3186 0 5.65664 4.337 2.30664 10.691Z" fill="#FF3D00"/>
<path d="M20.0003 39.9997C25.1663 39.9997 29.8603 38.0227 33.4093 34.8077L27.2193 29.5697C25.1439 31.1481 22.6078 32.0018 20.0003 31.9997C14.7983 31.9997 10.3813 28.6827 8.71731 24.0537L2.19531 29.0787C5.50531 35.5557 12.2273 39.9997 20.0003 39.9997Z" fill="#4CAF50"/>
<path d="M39.611 16.083H38V16H20V24H31.303C30.5142 26.2164 29.0934 28.1532 27.216 29.571L27.219 29.569L33.409 34.807C32.971 35.205 40 30 40 20C40 18.659 39.862 17.35 39.611 16.083Z" fill="#1976D2"/>
</svg>
