<svg width="22" height="12" viewBox="0 0 22 12" fill="none" xmlns="http://www.w3.org/2000/svg">
<path d="M5.36869 0C2.39443 0 0 2.39443 0 5.36869V5.42237C0.00891485 6.57723 0.38524 7.71009 1.0916 8.7084C1.79795 9.70672 2.80976 10.5358 4.02652 11.1132C5.25073 11.6942 6.63943 12 8.05303 12C9.46663 12 10.8553 11.6942 12.0795 11.1132C13.2963 10.5358 14.3081 9.70672 15.0145 8.7084C15.7208 7.71009 16.0971 6.57723 16.1061 5.42237C16.1062 5.40448 16.1062 5.38658 16.1061 5.36869C16.1061 2.39443 18.5005 0 21.4748 0H5.36869Z" fill="#312621"/>
</svg>
