<svg width="168" height="165" viewBox="0 0 168 165" fill="none" xmlns="http://www.w3.org/2000/svg">
<path d="M58.5446 0C41.0078 0 26.6325 14.2636 26.6325 31.7684V37.2663H10.6445C4.84323 37.2663 0 42.1095 0 47.9108V154.355C0 160.157 4.84323 165 10.6445 165H157.006C162.807 165 167.65 160.157 167.65 154.355V90.4886C167.65 84.6874 162.807 79.8442 157.006 79.8442H122.411V47.9108C122.411 42.1095 117.568 37.2663 111.767 37.2663H101.101V31.7844C101.101 14.2849 86.7258 0.0212899 69.1891 0.0212899C67.4008 0.0212899 65.6551 0.255469 63.9413 0.542869C62.1612 0.208059 60.3557 0.0264369 58.5446 0ZM58.5446 5.32224C60.3861 5.32224 62.1797 5.50851 63.92 5.8651C65.6232 5.51916 67.3795 5.34352 69.1891 5.34352C83.8624 5.34352 95.7789 17.1749 95.7789 31.7897V42.5885H111.767C114.715 42.5885 117.089 44.9622 117.089 47.9108V85.1664H157.006C159.954 85.1664 162.328 87.5401 162.328 90.4886V154.355C162.328 157.304 159.954 159.678 157.006 159.678H10.6445C7.69595 159.678 5.32223 157.304 5.32223 154.355V47.9108C5.32223 44.9622 7.69595 42.5885 10.6445 42.5885H31.9547V31.7684C31.9547 17.1536 43.8712 5.32224 58.5446 5.32224ZM63.8987 11.3843C54.6753 13.7048 47.9214 21.8744 47.9214 31.7897V42.5885H79.8122V31.7684C79.8122 21.8797 73.0849 13.726 63.8987 11.3843ZM52.0302 11.7462C43.4507 14.4658 37.2769 22.3055 37.2769 31.7684V42.5885H42.5992V31.7844C42.5992 23.7265 46.3088 16.5947 52.0248 11.7462H52.0302ZM75.7886 11.7888C81.4621 16.632 85.1345 23.7425 85.1345 31.7684V42.5885H90.4567V31.7844C90.4567 22.3587 84.3255 14.535 75.7886 11.7888ZM63.8881 17.3771C69.9927 19.5965 74.49 24.8655 74.49 31.7684V37.2663H53.2436V31.7844C53.2436 24.8655 57.7569 19.5805 63.8881 17.3824V17.3771Z" fill="#E9EDED"/>
</svg>
