<svg width="30" height="30" viewBox="0 0 30 30" fill="none" xmlns="http://www.w3.org/2000/svg">
<path d="M21.8225 15.7812C21.8337 14.8246 22.0875 13.8864 22.5602 13.0545C23.0328 12.2227 23.7089 11.5244 24.525 11.025C24.0063 10.2864 23.3235 9.67809 22.5301 9.2478C21.7367 8.8175 20.8544 8.57694 19.9525 8.545C18.005 8.3475 16.1525 9.69125 15.1662 9.69125C14.1787 9.69125 12.655 8.57375 11.0412 8.60375C9.98092 8.63304 8.94643 8.9374 8.03921 9.48699C7.13199 10.0366 6.38318 10.8125 5.86623 11.7387C3.66373 15.5637 5.30498 21.23 7.45123 24.3337C8.50123 25.8512 9.75498 27.56 11.3987 27.4988C12.9837 27.4363 13.5812 26.4738 15.495 26.4738C17.4087 26.4738 17.9475 27.4988 19.62 27.4675C21.325 27.4363 22.4062 25.9188 23.4475 24.3962C24.1938 23.3009 24.7769 22.103 25.1787 20.84C24.1865 20.4165 23.34 19.7119 22.7435 18.8129C22.1471 17.9139 21.8269 16.8601 21.8225 15.7812ZM18.6762 6.49125C19.6196 5.38468 20.0869 3.94988 19.9762 2.5C18.5522 2.63856 17.2352 3.31655 16.295 4.395C15.8258 4.91747 15.4666 5.52904 15.2387 6.19327C15.0109 6.85749 14.9191 7.56079 14.9687 8.26125C15.6812 8.27085 16.3862 8.11616 17.0292 7.8092C17.6721 7.50224 18.2357 7.05126 18.6762 6.49125Z" fill="black"/>
</svg>
