<svg width="30" height="30" viewBox="0 0 30 30" fill="none" xmlns="http://www.w3.org/2000/svg">
<path fill-rule="evenodd" clip-rule="evenodd" d="M13.5479 8.64893H20.2417C23.8357 8.64893 25.1886 10.4889 24.9795 13.1921C24.634 17.6549 21.9661 20.1239 18.4274 20.1239H16.6408C16.1553 20.1239 15.8287 20.4489 15.6974 21.3296L14.9388 26.4494C14.8887 26.7814 14.7159 26.9736 14.4567 26.9998H10.2511C9.85539 26.9998 9.71543 26.694 9.8191 26.0318L12.3833 9.61872C12.4835 8.96171 12.8394 8.64893 13.5479 8.64893Z" fill="#009EE3"/>
<path fill-rule="evenodd" clip-rule="evenodd" d="M9.36088 3H16.0616C17.9485 3 20.1878 3.06116 21.6841 4.3979C22.6846 5.2908 23.2099 6.71142 23.0889 8.24211C22.6777 13.4161 19.6176 16.315 15.5121 16.315H12.2084C11.6451 16.315 11.2736 16.6924 11.1147 17.7129L10.192 23.6539C10.1315 24.0384 9.96737 24.2655 9.67363 24.2935H5.53881C5.08092 24.2935 4.9185 23.944 5.03772 23.1717L8.00968 4.1288C8.1289 3.36345 8.54532 3 9.36088 3Z" fill="#113984"/>
<path fill-rule="evenodd" clip-rule="evenodd" d="M11.2109 17.11L12.3807 9.619C12.4827 8.96199 12.8386 8.64746 13.547 8.64746H20.2409C21.3484 8.64746 22.2452 8.8222 22.9467 9.14546C22.2746 13.7515 19.3285 16.3097 15.4719 16.3097H12.1734C11.731 16.3114 11.4062 16.5351 11.2109 17.11Z" fill="#172C70"/>
</svg>
