<svg width="17" height="14" viewBox="0 0 17 14" fill="none" xmlns="http://www.w3.org/2000/svg">
<path fill-rule="evenodd" clip-rule="evenodd" d="M7.85163 13.6208C7.48962 14.081 6.85952 14.1288 6.44427 13.7276L0.342003 7.83301C0.124712 7.62311 2.52014e-08 7.31932 0 6.9999C-2.52014e-08 6.68049 0.124712 6.3767 0.342003 6.1668L6.44427 0.272158C6.85952 -0.128964 7.48962 -0.0811455 7.85163 0.378966C8.21365 0.839076 8.17049 1.53724 7.75524 1.93837L3.65959 5.89466L15.6273 5.89466C16.1782 5.89466 16.6248 6.38949 16.6248 6.9999C16.6248 7.61031 16.1782 8.10515 15.6273 8.10515L3.65959 8.10515L7.75524 12.0614C8.17049 12.4626 8.21365 13.1607 7.85163 13.6208Z" fill="black"/>
</svg>
