<svg width="8" height="88" viewBox="0 0 8 88" fill="none" xmlns="http://www.w3.org/2000/svg">
<path fill-rule="evenodd" clip-rule="evenodd" d="M4 0C4.55228 0 5 0.447715 5 1V3.75C5 4.30228 4.55228 4.75 4 4.75C3.44772 4.75 3 4.30228 3 3.75L3 1C3 0.447715 3.44772 0 4 0ZM3.00786 9.12401C1.27864 9.56531 0 11.1333 0 13C0 15.1186 1.64709 16.8525 3.73061 16.9911C3.81632 17.015 3.90666 17.0278 4 17.0278C4.09334 17.0278 4.18368 17.015 4.26939 16.9911C6.35291 16.8525 8 15.1186 8 13C8 11.1333 6.72135 9.56531 4.99214 9.124C4.93018 8.6312 4.50961 8.25 4 8.25C3.49039 8.25 3.06981 8.6312 3.00786 9.12401ZM4 19.0833C4.55229 19.0833 5 19.531 5 20.0833V24.1389C5 24.6912 4.55229 25.1389 4 25.1389C3.44772 25.1389 3 24.6912 3 24.1389L3 20.0833C3 19.531 3.44772 19.0833 4 19.0833ZM4 27.1944C4.55229 27.1944 5 27.6422 5 28.1944L5 32.25C5 32.8023 4.55229 33.25 4 33.25C3.44772 33.25 3 32.8023 3 32.25L3 28.1944C3 27.6422 3.44772 27.1944 4 27.1944ZM4 35.3056C4.55229 35.3056 5 35.7533 5 36.3056L5 40.3611C5 40.9134 4.55229 41.3611 4 41.3611C3.44772 41.3611 3 40.9134 3 40.3611L3 36.3056C3 35.7533 3.44772 35.3056 4 35.3056ZM4 43.4167C4.55229 43.4167 5 43.8644 5 44.4167V48.4722C5 49.0245 4.55229 49.4722 4 49.4722C3.44772 49.4722 3 49.0245 3 48.4722L3 44.4167C3 43.8644 3.44772 43.4167 4 43.4167ZM4 51.5278C4.55229 51.5278 5 51.9755 5 52.5278V56.5833C5 57.1356 4.55229 57.5833 4 57.5833C3.44772 57.5833 3 57.1356 3 56.5833L3 52.5278C3 51.9755 3.44772 51.5278 4 51.5278ZM4 59.6389C4.55229 59.6389 5 60.0866 5 60.6389L5 64.6945C5 65.2467 4.55229 65.6945 4 65.6945C3.44772 65.6945 3 65.2467 3 64.6945V60.6389C3 60.0866 3.44772 59.6389 4 59.6389ZM4 67.75C4.55229 67.75 5 68.1977 5 68.75V72.8056C5 73.3578 4.55229 73.8056 4 73.8056C3.44772 73.8056 3 73.3578 3 72.8056L3 68.75C3 68.1977 3.44772 67.75 4 67.75ZM4 75.8611C4.55229 75.8611 5 76.3088 5 76.8611V80.9167C5 81.469 4.55229 81.9167 4 81.9167C3.44772 81.9167 3 81.469 3 80.9167V76.8611C3 76.3088 3.44772 75.8611 4 75.8611ZM4 83.9722C4.55229 83.9722 5 84.42 5 84.9722V87C5 87.5523 4.55229 88 4 88C3.44772 88 3 87.5523 3 87L3 84.9722C3 84.42 3.44772 83.9722 4 83.9722Z" fill="#956121"/>
</svg>
