<svg width="22" height="22" viewBox="0 0 22 22" fill="none" xmlns="http://www.w3.org/2000/svg">
<path d="M11 4.41667C10.5858 4.41667 10.25 4.75245 10.25 5.16667C10.25 5.58088 10.5858 5.91667 11 5.91667V4.41667ZM17.5 5.91667C17.9142 5.91667 18.25 5.58088 18.25 5.16667C18.25 4.75245 17.9142 4.41667 17.5 4.41667V5.91667ZM11 16.0833C10.5858 16.0833 10.25 16.4191 10.25 16.8333C10.25 17.2475 10.5858 17.5833 11 17.5833V16.0833ZM17.5 17.5833C17.9142 17.5833 18.25 17.2475 18.25 16.8333C18.25 16.4191 17.9142 16.0833 17.5 16.0833V17.5833ZM11 11.75C11.4142 11.75 11.75 11.4142 11.75 11C11.75 10.5858 11.4142 10.25 11 10.25V11.75ZM4.5 10.25C4.08579 10.25 3.75 10.5858 3.75 11C3.75 11.4142 4.08579 11.75 4.5 11.75L4.5 10.25ZM11 5.91667L17.5 5.91667V4.41667L11 4.41667V5.91667ZM11 17.5833H17.5V16.0833H11V17.5833ZM11 10.25L4.5 10.25L4.5 11.75L11 11.75V10.25ZM3.75 5.16667C3.75 6.48334 4.79554 7.58333 6.125 7.58333V6.08333C5.65954 6.08333 5.25 5.69094 5.25 5.16667H3.75ZM6.125 7.58333C7.45446 7.58333 8.5 6.48334 8.5 5.16667H7C7 5.69094 6.59046 6.08333 6.125 6.08333V7.58333ZM8.5 5.16667C8.5 3.84999 7.45446 2.75 6.125 2.75V4.25C6.59046 4.25 7 4.64239 7 5.16667H8.5ZM6.125 2.75C4.79554 2.75 3.75 3.84999 3.75 5.16667H5.25C5.25 4.64239 5.65954 4.25 6.125 4.25V2.75ZM3.75 16.8333C3.75 18.15 4.79554 19.25 6.125 19.25V17.75C5.65954 17.75 5.25 17.3576 5.25 16.8333H3.75ZM6.125 19.25C7.45446 19.25 8.5 18.15 8.5 16.8333H7C7 17.3576 6.59046 17.75 6.125 17.75V19.25ZM8.5 16.8333C8.5 15.5167 7.45446 14.4167 6.125 14.4167V15.9167C6.59046 15.9167 7 16.3091 7 16.8333H8.5ZM6.125 14.4167C4.79554 14.4167 3.75 15.5167 3.75 16.8333H5.25C5.25 16.3091 5.65954 15.9167 6.125 15.9167V14.4167ZM18.25 11C18.25 9.68332 17.2045 8.58333 15.875 8.58333V10.0833C16.3405 10.0833 16.75 10.4757 16.75 11L18.25 11ZM15.875 8.58333C14.5455 8.58333 13.5 9.68332 13.5 11L15 11C15 10.4757 15.4095 10.0833 15.875 10.0833V8.58333ZM13.5 11C13.5 12.3167 14.5455 13.4167 15.875 13.4167V11.9167C15.4095 11.9167 15 11.5243 15 11L13.5 11ZM15.875 13.4167C17.2045 13.4167 18.25 12.3167 18.25 11L16.75 11C16.75 11.5243 16.3405 11.9167 15.875 11.9167V13.4167Z" fill="white"/>
</svg>
