<svg width="59" height="11" viewBox="0 0 59 11" fill="none" xmlns="http://www.w3.org/2000/svg">
<path d="M10.7272 5.36362C10.7272 6.78614 10.1621 8.15039 9.15627 9.15627C8.15039 10.1621 6.78614 10.7272 5.36362 10.7272C3.9411 10.7272 2.57684 10.1621 1.57097 9.15627C0.565095 8.15039 0 6.78614 0 5.36362C0 3.9411 0.565095 2.57684 1.57097 1.57096C2.57684 0.56509 3.9411 0 5.36362 0C6.78614 0 8.15039 0.56509 9.15627 1.57096C10.1621 2.57684 10.7272 3.9411 10.7272 5.36362ZM58.9998 5.36362C58.9998 6.78614 58.4347 8.15039 57.4288 9.15627C56.4229 10.1621 55.0587 10.7272 53.6362 10.7272C52.2136 10.7272 50.8494 10.1621 49.8435 9.15627C48.8376 8.15039 48.2725 6.78614 48.2725 5.36362C48.2725 3.9411 48.8376 2.57684 49.8435 1.57096C50.8494 0.56509 52.2136 0 53.6362 0C55.0587 0 56.4229 0.56509 57.4288 1.57096C58.4347 2.57684 58.9998 3.9411 58.9998 5.36362Z" fill="#E6E6E6"/>
</svg>
