<svg width="24" height="24" viewBox="0 0 24 24" fill="none" xmlns="http://www.w3.org/2000/svg">
<path fill-rule="evenodd" clip-rule="evenodd" d="M11.9473 1C13.8658 1 15.421 2.55522 15.421 4.47368V12.5789C15.421 14.4974 13.8658 16.0526 11.9473 16.0526C10.0289 16.0526 8.47363 14.4974 8.47363 12.5789V4.47368C8.47363 2.55522 10.0289 1 11.9473 1Z" fill="#979797"/>
<path fill-rule="evenodd" clip-rule="evenodd" d="M18.0263 8.52637C17.5467 8.52637 17.1579 8.91517 17.1579 9.39479V12.579C17.1579 15.4567 14.8251 17.7895 11.9474 17.7895C9.06967 17.7895 6.73684 15.4567 6.73684 12.579V9.39479C6.73684 8.91517 6.34804 8.52637 5.86842 8.52637C5.38881 8.52637 5 8.91517 5 9.39479V12.579C5.00172 16.0788 7.60655 19.031 11.0789 19.4685V21.2632H8.76316C8.28354 21.2632 7.89474 21.652 7.89474 22.1316C7.89474 22.6112 8.28354 23.0001 8.76316 23.0001H15.1316C15.6112 23.0001 16 22.6112 16 22.1316C16 21.652 15.6112 21.2632 15.1316 21.2632H12.8158V19.4685C16.2882 19.031 18.893 16.0788 18.8947 12.579V9.39479C18.8947 8.91517 18.5059 8.52637 18.0263 8.52637V8.52637Z" fill="#979797"/>
</svg>
