<svg width="16" height="16" viewBox="0 0 16 16" fill="none" xmlns="http://www.w3.org/2000/svg">
<path d="M7.9371 9.74988C8.40123 9.74988 8.84635 9.56551 9.17454 9.23732C9.50273 8.90913 9.6871 8.46401 9.6871 7.99988C9.6871 7.94863 9.68476 7.89785 9.68038 7.8477L7.78491 9.74316C7.83507 9.74754 7.8857 9.74988 7.9371 9.74988ZM13.7296 2.58676L13.0621 1.91988C13.0387 1.89646 13.0069 1.8833 12.9737 1.8833C12.9406 1.8833 12.9088 1.89646 12.8854 1.91988L11.1773 3.62848C10.235 3.14691 9.17575 2.90613 7.9996 2.90613C4.99648 2.90613 2.75585 4.4702 1.27773 7.59832C1.21831 7.72413 1.1875 7.86153 1.1875 8.00066C1.1875 8.1398 1.21831 8.2772 1.27773 8.40301C1.86835 9.64707 2.57955 10.6442 3.41132 11.3944L1.75835 13.0468C1.73493 13.0702 1.72177 13.102 1.72177 13.1351C1.72177 13.1683 1.73493 13.2 1.75835 13.2235L2.42538 13.8905C2.44882 13.9139 2.4806 13.9271 2.51374 13.9271C2.54688 13.9271 2.57866 13.9139 2.6021 13.8905L13.7296 2.76363C13.7412 2.75202 13.7504 2.73824 13.7567 2.72306C13.763 2.70789 13.7663 2.69162 13.7663 2.6752C13.7663 2.65877 13.763 2.6425 13.7567 2.62733C13.7504 2.61215 13.7412 2.59837 13.7296 2.58676ZM5.1871 7.99988C5.18706 7.52489 5.31005 7.05799 5.54408 6.64466C5.77812 6.23133 6.11523 5.88566 6.52256 5.64133C6.92989 5.39701 7.39357 5.26236 7.86841 5.25049C8.34325 5.23863 8.81307 5.34996 9.2321 5.57363L8.47241 6.33332C8.16604 6.23522 7.83856 6.22341 7.52591 6.29917C7.21327 6.37494 6.92753 6.53536 6.70006 6.76284C6.47258 6.99031 6.31216 7.27605 6.23639 7.5887C6.16062 7.90134 6.17244 8.22882 6.27054 8.5352L5.51085 9.29488C5.29766 8.89657 5.18644 8.45166 5.1871 7.99988Z" fill="black"/>
<path d="M14.722 7.59678C14.172 6.43844 13.5174 5.49391 12.7581 4.76318L10.5059 7.01553C10.6958 7.5118 10.7379 8.05243 10.6271 8.5721C10.5163 9.09177 10.2574 9.56825 9.88172 9.94397C9.506 10.3197 9.02953 10.5786 8.50986 10.6893C7.99018 10.8001 7.44955 10.758 6.95328 10.5682L5.04297 12.4785C5.92922 12.8886 6.91495 13.0937 8.00016 13.0937C11.0033 13.0937 13.2439 11.5296 14.722 8.40146C14.7815 8.27566 14.8123 8.13825 14.8123 7.99912C14.8123 7.85999 14.7815 7.72258 14.722 7.59678Z" fill="black"/>
</svg>
