<svg width="8" height="24" viewBox="0 0 8 24" fill="none" xmlns="http://www.w3.org/2000/svg">
<path fill-rule="evenodd" clip-rule="evenodd" d="M4 0C4.55228 0 5 0.447715 5 1V3.75C5 4.30228 4.55228 4.75 4 4.75C3.44772 4.75 3 4.30228 3 3.75L3 1C3 0.447715 3.44772 0 4 0ZM4 8.25C4.55229 8.25 5 8.69771 5 9.25V12C5 12.5523 4.55229 13 4 13C3.44772 13 3 12.5523 3 12V9.25C3 8.69771 3.44772 8.25 4 8.25ZM8 20C8 22.2091 6.20914 24 4 24C1.79086 24 0 22.2091 0 20C0 17.7909 1.79086 16 4 16C6.20914 16 8 17.7909 8 20Z" fill="#956121"/>
</svg>
