<svg width="24" height="24" viewBox="0 0 24 24" fill="none" xmlns="http://www.w3.org/2000/svg">
<g clip-path="url(#clip0_0_70)">
<path d="M12.0003 22C13.1003 22 14.0003 21.1 14.0003 20H10.0003C10.0003 21.1 10.9003 22 12.0003 22ZM18.0003 16V11C18.0003 7.93 16.3703 5.36 13.5003 4.68V4C13.5003 3.17 12.8303 2.5 12.0003 2.5C11.1703 2.5 10.5003 3.17 10.5003 4V4.68C7.64027 5.36 6.00027 7.92 6.00027 11V16L4.00027 18V19H20.0003V18L18.0003 16ZM16.0003 17H8.00027V11C8.00027 8.52 9.51027 6.5 12.0003 6.5C14.4903 6.5 16.0003 8.52 16.0003 11V17ZM7.58027 4.08L6.15027 2.65C3.75027 4.48 2.17027 7.3 2.03027 10.5H4.03027C4.18027 7.85 5.54027 5.53 7.58027 4.08ZM19.9703 10.5H21.9703C21.8203 7.3 20.2403 4.48 17.8503 2.65L16.4303 4.08C18.4503 5.53 19.8203 7.85 19.9703 10.5Z" fill="black"/>
</g>
<defs>
<clipPath id="clip0_0_70">
<rect width="24" height="24" fill="white"/>
</clipPath>
</defs>
</svg>
