<svg width="40" height="32" viewBox="0 0 40 32" fill="none" xmlns="http://www.w3.org/2000/svg">
<g clip-path="url(#clip0_1179_2254)">
<path d="M40 3.89677C38.5022 4.54699 36.9134 4.9738 35.2866 5.16299C36.9811 4.16778 38.2822 2.59181 38.8948 0.714072C37.284 1.65078 35.5216 2.31075 33.6838 2.66546C32.1867 1.10267 30.0541 0.125977 27.6936 0.125977C23.1614 0.125977 19.4869 3.72651 19.4869 8.16732C19.4869 8.79767 19.5595 9.41133 19.6994 10C12.8791 9.66458 6.83219 6.4632 2.78453 1.59798C2.07828 2.78565 1.67359 4.16716 1.67359 5.64069C1.67359 8.43067 3.1225 10.8919 5.32438 12.3341C4.02117 12.2941 2.74664 11.9491 1.60719 11.3281C1.60672 11.3618 1.60672 11.3955 1.60672 11.4293C1.60672 15.3255 4.43547 18.5757 8.18953 19.3145C6.98107 19.6365 5.71348 19.6837 4.48359 19.4523C5.52781 22.6471 8.55859 24.9719 12.1495 25.037C9.34094 27.1937 5.80234 28.4794 1.95766 28.4794C1.29516 28.4794 0.642031 28.4412 0 28.367C3.63172 30.6486 7.94531 31.9799 12.5797 31.9799C27.6745 31.9799 35.9287 19.7264 35.9287 9.09991C35.9287 8.75112 35.9209 8.40433 35.905 8.05953C37.5116 6.92144 38.8983 5.5118 40 3.89677Z" fill="#55ACEE"/>
</g>
<defs>
<clipPath id="clip0_1179_2254">
<rect width="40" height="32" fill="white"/>
</clipPath>
</defs>
</svg>
