<svg width="182" height="35" viewBox="0 0 182 35" fill="none" xmlns="http://www.w3.org/2000/svg">
<rect x="43.75" y="14.875" width="2.625" height="6.125" fill="white"/>
<rect x="49.875" y="14.875" width="2.625" height="6.125" fill="white"/>
<rect x="56" y="14.875" width="2.625" height="6.125" fill="white"/>
<rect x="62.125" y="12.25" width="2.625" height="10.5" fill="white"/>
<rect x="68.25" y="9.625" width="2.625" height="16.625" fill="white"/>
<rect x="74.375" y="3.5" width="2.625" height="28" fill="white"/>
<rect x="80.5" y="7.875" width="2.625" height="19.25" fill="white"/>
<rect x="86.625" width="2.625" height="35" fill="white"/>
<rect x="92.75" y="8.75" width="2.625" height="17.5" fill="white"/>
<rect x="98.875" y="14" width="2.625" height="7.875" fill="white"/>
<rect x="105" y="9.625" width="2.625" height="16.625" fill="white"/>
<rect x="111.125" y="12.25" width="2.625" height="10.5" fill="white"/>
<rect x="117.25" y="14.875" width="2.625" height="6.125" fill="white"/>
<rect x="123.375" y="15.75" width="2.625" height="3.5" fill="black"/>
<rect x="129.5" y="9.625" width="2.625" height="16.625" fill="black"/>
<rect x="135.625" y="4.375" width="2.625" height="27.125" fill="black"/>
<rect x="141.75" y="8.75" width="2.625" height="18.375" fill="black"/>
<rect x="147.875" y="0.875" width="2.625" height="33.25" fill="black"/>
<rect x="154" y="8.75" width="2.625" height="17.5" fill="black"/>
<rect x="160.125" y="12.25" width="2.625" height="10.5" fill="black"/>
<rect x="166.25" y="14.875" width="2.625" height="5.25" fill="black"/>
<rect x="172.375" y="14.875" width="2.625" height="6.125" fill="black"/>
<rect x="178.5" y="14.875" width="2.625" height="6.125" fill="black"/>
<circle cx="16.625" cy="17.5" r="15.625" stroke="white" stroke-width="2"/>
<path d="M23.625 16.1965C24.2917 16.5814 24.2917 17.5436 23.625 17.9285L13.2187 23.9366C12.5521 24.3215 11.7187 23.8404 11.7187 23.0706L11.7187 11.0544C11.7187 10.2846 12.5521 9.80352 13.2187 10.1884L23.625 16.1965Z" stroke="white" stroke-width="2"/>
</svg>
