<svg width="54" height="48" viewBox="0 0 54 48" fill="none" xmlns="http://www.w3.org/2000/svg">
<path d="M2.62494 0.000349307C2.27466 0.005909 1.9289 0.0799437 1.60742 0.219149C1.28593 0.358353 0.995024 0.560079 0.751299 0.81173C0.507574 1.06338 0.315812 1.3605 0.186963 1.68628C0.0581143 2.01205 -0.00530254 2.35966 0.000346822 2.70994V21.498C0.000346822 36.1413 11.9444 48.0001 26.6517 48.0001C41.359 48.0001 53.303 36.1413 53.303 21.498V2.70994C53.303 2.00254 53.022 1.32431 52.5218 0.824102C52.0216 0.323893 51.3431 0.0426765 50.6357 0.0426765C49.9283 0.0426765 49.2499 0.323893 48.7497 0.824102C48.2495 1.32431 47.9685 2.00254 47.9685 2.70994V21.498C47.9685 33.2607 38.5157 42.6655 26.6517 42.6655C14.7877 42.6655 5.33488 33.2607 5.33488 21.498V2.70994C5.34065 2.35248 5.27449 1.99748 5.14035 1.66609C5.0062 1.3347 4.8068 1.03392 4.554 0.781124C4.3012 0.528325 4.00017 0.328549 3.66877 0.194403C3.33738 0.0602577 2.98241 -0.0054174 2.62494 0.000349307Z" fill="black"/>
</svg>
